<svg xmlns="http://www.w3.org/2000/svg" xmlns:xlink="http://www.w3.org/1999/xlink" zoomAndPan="magnify" preserveAspectRatio="xMidYMid meet" version="1.0" viewBox="11.63 221.05 1423.53 413.42"><defs><g/><clipPath id="058d32b571"><path d="M 687 383 L 1435.921875 383 L 1435.921875 501.839844 L 687 501.839844 Z M 687 383 " clip-rule="nonzero"/></clipPath><clipPath id="d0d956997d"><path d="M 684 25 L 748.921875 25 L 748.921875 96 L 684 96 Z M 684 25 " clip-rule="nonzero"/></clipPath><clipPath id="a7cff0b941"><rect x="0" width="749" y="0" height="119"/></clipPath><clipPath id="e09376a481"><rect x="0" width="1436" y="0" height="502"/></clipPath></defs><g transform="matrix(1, 0, 0, 1, 0, 156)"><g clip-path="url(#e09376a481)"><g fill="#000000" fill-opacity="1"><g transform="translate(-3.549367, 370.940373)"><g><path d="M 187.3125 0 L 180.140625 -31.640625 C 163.828125 -7.171875 140.203125 5.0625 109.265625 5.0625 C 79.171875 5.0625 55.96875 -4.78125 39.65625 -24.46875 C 23.34375 -44.15625 15.1875 -73.265625 15.1875 -111.796875 C 15.1875 -150.046875 23.34375 -178.945312 39.65625 -198.5 C 55.96875 -218.050781 79.171875 -227.828125 109.265625 -227.828125 C 134.859375 -227.828125 155.671875 -219.242188 171.703125 -202.078125 L 171.703125 -305.875 L 255.671875 -305.875 L 255.671875 0 Z M 135.421875 -165.796875 C 111.234375 -165.796875 99.140625 -151.3125 99.140625 -122.34375 L 99.140625 -99.984375 C 99.140625 -71.296875 111.234375 -56.953125 135.421875 -56.953125 C 147.796875 -56.953125 157.078125 -61.3125 163.265625 -70.03125 C 169.453125 -78.75 172.546875 -90.140625 172.546875 -104.203125 L 172.546875 -118.125 C 172.546875 -132.1875 169.453125 -143.644531 163.265625 -152.5 C 157.078125 -161.363281 147.796875 -165.796875 135.421875 -165.796875 Z M 135.421875 -165.796875 "/></g></g></g><g fill="#000000" fill-opacity="1"><g transform="translate(253.379079, 370.940373)"><g><path d="M 135.421875 -227.828125 C 169.453125 -227.828125 197.15625 -222.128906 218.53125 -210.734375 C 239.914062 -199.335938 250.609375 -180.84375 250.609375 -155.25 L 250.609375 -68.34375 C 250.609375 -63.5625 251.734375 -59.625 253.984375 -56.53125 C 256.234375 -53.4375 259.609375 -51.890625 264.109375 -51.890625 L 279.296875 -51.890625 L 279.296875 -3.375 C 278.453125 -2.8125 276.269531 -1.894531 272.75 -0.625 C 269.238281 0.632812 264.25 1.894531 257.78125 3.15625 C 251.3125 4.425781 243.859375 5.0625 235.421875 5.0625 C 219.109375 5.0625 205.675781 2.601562 195.125 -2.3125 C 184.570312 -7.238281 177.328125 -14.0625 173.390625 -22.78125 C 162.703125 -14.34375 150.75 -7.59375 137.53125 -2.53125 C 124.3125 2.53125 108.84375 5.0625 91.125 5.0625 C 38.8125 5.0625 12.65625 -15.75 12.65625 -57.375 C 12.65625 -79.03125 18.488281 -95.550781 30.15625 -106.9375 C 41.832031 -118.332031 58.640625 -126.140625 80.578125 -130.359375 C 102.515625 -134.578125 131.203125 -136.6875 166.640625 -136.6875 L 166.640625 -147.65625 C 166.640625 -156.375 163.613281 -162.984375 157.5625 -167.484375 C 151.519531 -171.984375 143.71875 -174.234375 134.15625 -174.234375 C 125.4375 -174.234375 117.910156 -172.6875 111.578125 -169.59375 C 105.253906 -166.5 102.09375 -161.578125 102.09375 -154.828125 L 102.09375 -153.140625 L 19.40625 -153.140625 C 19.125 -154.546875 18.984375 -156.515625 18.984375 -159.046875 C 18.984375 -180.140625 29.035156 -196.875 49.140625 -209.25 C 69.253906 -221.632812 98.015625 -227.828125 135.421875 -227.828125 Z M 166.640625 -97.03125 C 142.734375 -97.03125 125.082031 -94.425781 113.6875 -89.21875 C 102.300781 -84.019531 96.609375 -77.0625 96.609375 -68.34375 C 96.609375 -54.28125 106.171875 -47.25 125.296875 -47.25 C 136.265625 -47.25 145.894531 -50.203125 154.1875 -56.109375 C 162.488281 -62.015625 166.640625 -69.328125 166.640625 -78.046875 Z M 166.640625 -97.03125 "/></g></g></g><g fill="#000000" fill-opacity="1"><g transform="translate(510.307525, 370.940373)"><g><path d="M 160.734375 -228.25 C 167.203125 -228.25 172.96875 -227.472656 178.03125 -225.921875 C 183.09375 -224.378906 185.625 -223.46875 185.625 -223.1875 L 185.625 -152.71875 L 158.625 -152.71875 C 141.1875 -152.71875 128.597656 -148.21875 120.859375 -139.21875 C 113.128906 -130.21875 109.265625 -116.859375 109.265625 -99.140625 L 109.265625 0 L 25.3125 0 L 25.3125 -222.765625 L 94.078125 -222.765625 L 99.5625 -189 C 104.625 -201.9375 112.640625 -211.710938 123.609375 -218.328125 C 134.578125 -224.941406 146.953125 -228.25 160.734375 -228.25 Z M 160.734375 -228.25 "/></g></g></g><g fill="#000000" fill-opacity="1"><g transform="translate(673.155315, 370.940373)"><g><path d="M 28.265625 -248.921875 L 28.265625 -305.875 L 112.21875 -305.875 L 112.21875 -248.921875 Z M 28.265625 0 L 28.265625 -222.765625 L 112.21875 -222.765625 L 112.21875 0 Z M 28.265625 0 "/></g></g></g><g fill="#000000" fill-opacity="1"><g transform="translate(789.173756, 370.940373)"><g><path d="M 140.484375 -227.828125 C 179.578125 -227.828125 210.304688 -217.910156 232.671875 -198.078125 C 255.035156 -178.242188 266.21875 -149.34375 266.21875 -111.375 C 266.21875 -73.40625 255.035156 -44.503906 232.671875 -24.671875 C 210.304688 -4.847656 179.578125 5.0625 140.484375 5.0625 C 101.390625 5.0625 70.734375 -4.78125 48.515625 -24.46875 C 26.296875 -44.15625 15.1875 -73.125 15.1875 -111.375 C 15.1875 -149.625 26.296875 -178.59375 48.515625 -198.28125 C 70.734375 -217.976562 101.390625 -227.828125 140.484375 -227.828125 Z M 140.484375 -170.859375 C 112.921875 -170.859375 99.140625 -154.96875 99.140625 -123.1875 L 99.140625 -99.140625 C 99.140625 -67.640625 112.921875 -51.890625 140.484375 -51.890625 C 168.328125 -51.890625 182.25 -67.640625 182.25 -99.140625 L 182.25 -123.1875 C 182.25 -154.96875 168.328125 -170.859375 140.484375 -170.859375 Z M 140.484375 -170.859375 "/></g></g></g><g fill="#000000" fill-opacity="1"><g transform="translate(1046.102271, 370.940373)"><g><path d="M 178.875 -227.828125 C 204.757812 -227.828125 224.171875 -220.648438 237.109375 -206.296875 C 250.046875 -191.953125 256.515625 -171.28125 256.515625 -144.28125 L 256.515625 0 L 172.546875 0 L 172.546875 -134.15625 C 172.546875 -143.71875 170.082031 -151.378906 165.15625 -157.140625 C 160.238281 -162.910156 153.28125 -165.796875 144.28125 -165.796875 C 133.875 -165.796875 125.4375 -162.421875 118.96875 -155.671875 C 112.5 -148.921875 109.265625 -140.625 109.265625 -130.78125 L 109.265625 0 L 25.3125 0 L 25.3125 -222.765625 L 94.078125 -222.765625 L 99.5625 -189 C 108.28125 -200.8125 119.738281 -210.234375 133.9375 -217.265625 C 148.144531 -224.304688 163.125 -227.828125 178.875 -227.828125 Z M 178.875 -227.828125 "/></g></g></g><g fill="#000000" fill-opacity="1"><g transform="translate(1303.030647, 370.940373)"><g><path d="M 25.734375 0 L 25.734375 -83.953125 L 115.171875 -83.953125 L 115.171875 0 Z M 25.734375 0 "/></g></g></g><g clip-path="url(#058d32b571)"><g transform="matrix(1, 0, 0, 1, 687, 383)"><g clip-path="url(#a7cff0b941)"><g fill="#000000" fill-opacity="1"><g transform="translate(1.076243, 94.280451)"><g><path d="M 27.859375 -55.125 L 6.109375 -55.125 L 8.734375 -67.9375 L 67.9375 -67.9375 L 65.328125 -55.125 L 43.671875 -55.125 L 32.609375 0 L 16.890625 0 Z M 27.859375 -55.125 "/></g></g></g><g fill="#000000" fill-opacity="1"><g transform="translate(55.429644, 94.280451)"><g><path d="M 29.5 -55.328125 L 26.59375 -40.578125 L 58.140625 -40.578125 L 55.71875 -28.34375 L 24.078125 -28.34375 L 20.96875 -12.625 L 58.046875 -12.625 L 55.421875 0 L 2.8125 0 L 16.40625 -67.9375 L 67.75 -67.9375 L 65.125 -55.328125 Z M 29.5 -55.328125 "/></g></g></g><g fill="#000000" fill-opacity="1"><g transform="translate(114.733136, 94.280451)"><g><path d="M 38.53125 1.171875 C 31.738281 1.171875 25.800781 -0.0546875 20.71875 -2.515625 C 15.644531 -4.984375 11.75 -8.445312 9.03125 -12.90625 C 6.3125 -17.375 4.953125 -22.519531 4.953125 -28.34375 C 4.953125 -36.039062 6.710938 -42.976562 10.234375 -49.15625 C 13.765625 -55.34375 18.734375 -60.210938 25.140625 -63.765625 C 31.546875 -67.328125 38.890625 -69.109375 47.171875 -69.109375 C 53.253906 -69.109375 58.625 -68.070312 63.28125 -66 C 67.9375 -63.925781 71.460938 -60.953125 73.859375 -57.078125 L 62.515625 -47.75 C 58.890625 -53.0625 53.421875 -55.71875 46.109375 -55.71875 C 41.117188 -55.71875 36.710938 -54.550781 32.890625 -52.21875 C 29.078125 -49.882812 26.117188 -46.710938 24.015625 -42.703125 C 21.921875 -38.691406 20.875 -34.226562 20.875 -29.3125 C 20.875 -24.070312 22.535156 -19.914062 25.859375 -16.84375 C 29.191406 -13.769531 33.867188 -12.234375 39.890625 -12.234375 C 47.078125 -12.234375 53.097656 -14.851562 57.953125 -20.09375 L 67.265625 -10.578125 C 60.535156 -2.742188 50.957031 1.171875 38.53125 1.171875 Z M 38.53125 1.171875 "/></g></g></g><g fill="#000000" fill-opacity="1"><g transform="translate(180.248533, 94.280451)"><g><path d="M 78.71875 -67.9375 L 65.125 0 L 49.40625 0 L 54.9375 -27.65625 L 24.171875 -27.65625 L 18.640625 0 L 2.8125 0 L 16.40625 -67.9375 L 32.21875 -67.9375 L 26.890625 -41.25 L 57.65625 -41.25 L 63 -67.9375 Z M 78.71875 -67.9375 "/></g></g></g><g fill="#000000" fill-opacity="1"><g transform="translate(253.043478, 94.280451)"><g><path d="M 78.71875 -67.9375 L 65.125 0 L 52.21875 0 L 26.890625 -42.515625 L 18.34375 0 L 2.8125 0 L 16.40625 -67.9375 L 29.40625 -67.9375 L 54.75 -25.328125 L 63.1875 -67.9375 Z M 78.71875 -67.9375 "/></g></g></g><g fill="#000000" fill-opacity="1"><g transform="translate(325.838423, 94.280451)"><g><path d="M 38.046875 1.171875 C 31.253906 1.171875 25.363281 -0.0546875 20.375 -2.515625 C 15.394531 -4.984375 11.578125 -8.445312 8.921875 -12.90625 C 6.273438 -17.375 4.953125 -22.519531 4.953125 -28.34375 C 4.953125 -36.039062 6.710938 -42.976562 10.234375 -49.15625 C 13.765625 -55.34375 18.71875 -60.210938 25.09375 -63.765625 C 31.46875 -67.328125 38.765625 -69.109375 46.984375 -69.109375 C 53.773438 -69.109375 59.660156 -67.878906 64.640625 -65.421875 C 69.628906 -62.960938 73.445312 -59.5 76.09375 -55.03125 C 78.75 -50.570312 80.078125 -45.425781 80.078125 -39.59375 C 80.078125 -31.894531 78.3125 -24.957031 74.78125 -18.78125 C 71.257812 -12.601562 66.3125 -7.734375 59.9375 -4.171875 C 53.5625 -0.609375 46.265625 1.171875 38.046875 1.171875 Z M 39.40625 -12.234375 C 44.382812 -12.234375 48.75 -13.425781 52.5 -15.8125 C 56.257812 -18.207031 59.140625 -21.410156 61.140625 -25.421875 C 63.148438 -29.441406 64.15625 -33.878906 64.15625 -38.734375 C 64.15625 -43.910156 62.535156 -48.035156 59.296875 -51.109375 C 56.066406 -54.179688 51.507812 -55.71875 45.625 -55.71875 C 40.632812 -55.71875 36.265625 -54.519531 32.515625 -52.125 C 28.765625 -49.726562 25.882812 -46.523438 23.875 -42.515625 C 21.875 -38.503906 20.875 -34.070312 20.875 -29.21875 C 20.875 -24.039062 22.488281 -19.914062 25.71875 -16.84375 C 28.957031 -13.769531 33.519531 -12.234375 39.40625 -12.234375 Z M 39.40625 -12.234375 "/></g></g></g><g fill="#000000" fill-opacity="1"><g transform="translate(402.127568, 94.280451)"><g><path d="M 16.40625 -67.9375 L 32.21875 -67.9375 L 21.15625 -12.8125 L 55.234375 -12.8125 L 52.609375 0 L 2.8125 0 Z M 16.40625 -67.9375 "/></g></g></g><g fill="#000000" fill-opacity="1"><g transform="translate(453.957313, 94.280451)"><g><path d="M 38.046875 1.171875 C 31.253906 1.171875 25.363281 -0.0546875 20.375 -2.515625 C 15.394531 -4.984375 11.578125 -8.445312 8.921875 -12.90625 C 6.273438 -17.375 4.953125 -22.519531 4.953125 -28.34375 C 4.953125 -36.039062 6.710938 -42.976562 10.234375 -49.15625 C 13.765625 -55.34375 18.71875 -60.210938 25.09375 -63.765625 C 31.46875 -67.328125 38.765625 -69.109375 46.984375 -69.109375 C 53.773438 -69.109375 59.660156 -67.878906 64.640625 -65.421875 C 69.628906 -62.960938 73.445312 -59.5 76.09375 -55.03125 C 78.75 -50.570312 80.078125 -45.425781 80.078125 -39.59375 C 80.078125 -31.894531 78.3125 -24.957031 74.78125 -18.78125 C 71.257812 -12.601562 66.3125 -7.734375 59.9375 -4.171875 C 53.5625 -0.609375 46.265625 1.171875 38.046875 1.171875 Z M 39.40625 -12.234375 C 44.382812 -12.234375 48.75 -13.425781 52.5 -15.8125 C 56.257812 -18.207031 59.140625 -21.410156 61.140625 -25.421875 C 63.148438 -29.441406 64.15625 -33.878906 64.15625 -38.734375 C 64.15625 -43.910156 62.535156 -48.035156 59.296875 -51.109375 C 56.066406 -54.179688 51.507812 -55.71875 45.625 -55.71875 C 40.632812 -55.71875 36.265625 -54.519531 32.515625 -52.125 C 28.765625 -49.726562 25.882812 -46.523438 23.875 -42.515625 C 21.875 -38.503906 20.875 -34.070312 20.875 -29.21875 C 20.875 -24.039062 22.488281 -19.914062 25.71875 -16.84375 C 28.957031 -13.769531 33.519531 -12.234375 39.40625 -12.234375 Z M 39.40625 -12.234375 "/></g></g></g><g fill="#000000" fill-opacity="1"><g transform="translate(530.246458, 94.280451)"><g><path d="M 55.8125 -35.046875 L 70.171875 -35.046875 L 64.546875 -7.078125 C 61.117188 -4.429688 57.140625 -2.394531 52.609375 -0.96875 C 48.078125 0.457031 43.382812 1.171875 38.53125 1.171875 C 31.738281 1.171875 25.816406 -0.0546875 20.765625 -2.515625 C 15.722656 -4.984375 11.828125 -8.445312 9.078125 -12.90625 C 6.328125 -17.375 4.953125 -22.519531 4.953125 -28.34375 C 4.953125 -36.039062 6.726562 -42.992188 10.28125 -49.203125 C 13.84375 -55.421875 18.859375 -60.289062 25.328125 -63.8125 C 31.804688 -67.34375 39.25 -69.109375 47.65625 -69.109375 C 54.125 -69.109375 59.734375 -68.101562 64.484375 -66.09375 C 69.242188 -64.09375 73.082031 -61.148438 76 -57.265625 L 64.734375 -48.140625 C 62.472656 -50.796875 59.914062 -52.722656 57.0625 -53.921875 C 54.21875 -55.117188 50.859375 -55.71875 46.984375 -55.71875 C 41.804688 -55.71875 37.242188 -54.566406 33.296875 -52.265625 C 29.347656 -49.972656 26.289062 -46.816406 24.125 -42.796875 C 21.957031 -38.785156 20.875 -34.289062 20.875 -29.3125 C 20.875 -24.070312 22.570312 -19.914062 25.96875 -16.84375 C 29.363281 -13.769531 34.234375 -12.234375 40.578125 -12.234375 C 44.585938 -12.234375 48.335938 -13.039062 51.828125 -14.65625 Z M 55.8125 -35.046875 "/></g></g></g><g fill="#000000" fill-opacity="1"><g transform="translate(599.45014, 94.280451)"><g><path d="M 16.40625 -67.9375 L 32.21875 -67.9375 L 18.640625 0 L 2.8125 0 Z M 16.40625 -67.9375 "/></g></g></g><g fill="#000000" fill-opacity="1"><g transform="translate(625.655954, 94.280451)"><g><path d="M 29.5 -55.328125 L 26.59375 -40.578125 L 58.140625 -40.578125 L 55.71875 -28.34375 L 24.078125 -28.34375 L 20.96875 -12.625 L 58.046875 -12.625 L 55.421875 0 L 2.8125 0 L 16.40625 -67.9375 L 67.75 -67.9375 L 65.125 -55.328125 Z M 29.5 -55.328125 "/></g></g></g><g clip-path="url(#d0d956997d)"><g fill="#000000" fill-opacity="1"><g transform="translate(685.153563, 94.280451)"><g><path d="M 26.5 1.171875 C 21.125 1.171875 15.976562 0.457031 11.0625 -0.96875 C 6.144531 -2.394531 2.195312 -4.207031 -0.78125 -6.40625 L 5.625 -18.53125 C 8.726562 -16.269531 12.222656 -14.523438 16.109375 -13.296875 C 19.992188 -12.066406 23.972656 -11.453125 28.046875 -11.453125 C 32.378906 -11.453125 35.804688 -12.160156 38.328125 -13.578125 C 40.859375 -15.003906 42.125 -16.945312 42.125 -19.40625 C 42.125 -21.414062 41.117188 -22.953125 39.109375 -24.015625 C 37.109375 -25.085938 33.90625 -26.238281 29.5 -27.46875 C 25.101562 -28.757812 21.515625 -30.003906 18.734375 -31.203125 C 15.953125 -32.398438 13.539062 -34.195312 11.5 -36.59375 C 9.457031 -38.988281 8.4375 -42.160156 8.4375 -46.109375 C 8.4375 -50.703125 9.710938 -54.742188 12.265625 -58.234375 C 14.828125 -61.734375 18.453125 -64.421875 23.140625 -66.296875 C 27.835938 -68.171875 33.289062 -69.109375 39.5 -69.109375 C 44.09375 -69.109375 48.425781 -68.601562 52.5 -67.59375 C 56.582031 -66.59375 60.082031 -65.15625 63 -63.28125 L 57.078125 -51.25 C 54.546875 -53 51.695312 -54.304688 48.53125 -55.171875 C 45.363281 -56.046875 42.0625 -56.484375 38.625 -56.484375 C 34.164062 -56.484375 30.640625 -55.707031 28.046875 -54.15625 C 25.460938 -52.601562 24.171875 -50.597656 24.171875 -48.140625 C 24.171875 -46.648438 24.71875 -45.40625 25.8125 -44.40625 C 26.914062 -43.40625 28.304688 -42.597656 29.984375 -41.984375 C 31.671875 -41.367188 34.035156 -40.640625 37.078125 -39.796875 C 41.410156 -38.628906 44.96875 -37.445312 47.75 -36.25 C 50.53125 -35.050781 52.90625 -33.300781 54.875 -31 C 56.851562 -28.707031 57.84375 -25.6875 57.84375 -21.9375 C 57.84375 -17.28125 56.546875 -13.21875 53.953125 -9.75 C 51.367188 -6.289062 47.710938 -3.601562 42.984375 -1.6875 C 38.265625 0.21875 32.769531 1.171875 26.5 1.171875 Z M 26.5 1.171875 "/></g></g></g></g></g></g></g></g></g></svg>